<?xml version="1.0" encoding="UTF-8" standalone="no"?>
<!DOCTYPE svg PUBLIC "-//W3C//DTD SVG 1.1//EN" "http://www.w3.org/Graphics/SVG/1.1/DTD/svg11.dtd">
<svg width="100%" height="100%" viewBox="0 0 682 1024" version="1.1" xmlns="http://www.w3.org/2000/svg" xmlns:xlink="http://www.w3.org/1999/xlink" xml:space="preserve" xmlns:serif="http://www.serif.com/" style="fill-rule:evenodd;clip-rule:evenodd;stroke-linejoin:round;stroke-miterlimit:2;">
    <g transform="matrix(1,0,0,1,-342.885,-6.82121e-13)">
        <g transform="matrix(96.9697,0,0,96.9697,-29004.9,-30602.5)">
            <g transform="matrix(16,0,0,16,302.265,325.956)">
                <path d="M0.024,-0.078C0.069,-0.028 0.137,0.012 0.24,0.012C0.362,0.012 0.463,-0.056 0.463,-0.172C0.463,-0.256 0.406,-0.31 0.331,-0.33L0.331,-0.334C0.4,-0.361 0.442,-0.409 0.442,-0.48C0.442,-0.588 0.358,-0.648 0.236,-0.648C0.16,-0.648 0.099,-0.616 0.045,-0.568L0.104,-0.497C0.143,-0.533 0.182,-0.557 0.232,-0.557C0.29,-0.557 0.326,-0.525 0.326,-0.472C0.326,-0.413 0.285,-0.37 0.16,-0.37L0.16,-0.286C0.305,-0.286 0.347,-0.244 0.347,-0.178C0.347,-0.118 0.299,-0.082 0.23,-0.082C0.166,-0.082 0.117,-0.113 0.079,-0.152L0.024,-0.078Z" style="fill:rgb(54,54,54);fill-rule:nonzero;"/>
            </g>
        </g>
    </g>
</svg>
