<?xml version="1.0" encoding="UTF-8" standalone="no"?>
<!DOCTYPE svg PUBLIC "-//W3C//DTD SVG 1.1//EN" "http://www.w3.org/Graphics/SVG/1.1/DTD/svg11.dtd">
<svg width="100%" height="100%" viewBox="0 0 688 1024" version="1.1" xmlns="http://www.w3.org/2000/svg" xmlns:xlink="http://www.w3.org/1999/xlink" xml:space="preserve" xmlns:serif="http://www.serif.com/" style="fill-rule:evenodd;clip-rule:evenodd;stroke-linejoin:round;stroke-miterlimit:2;">
    <g transform="matrix(1,0,0,1,-336.593,1.81899e-12)">
        <g transform="matrix(98.7654,0,0,98.7654,-29568.9,-31169.2)">
            <g transform="matrix(16,0,0,16,302.265,325.956)">
                <path d="M0.038,-0L0.468,-0L0.468,-0.098L0.312,-0.098C0.281,-0.098 0.239,-0.094 0.206,-0.091C0.332,-0.224 0.437,-0.34 0.437,-0.453C0.437,-0.571 0.358,-0.648 0.236,-0.648C0.149,-0.648 0.091,-0.612 0.033,-0.55L0.097,-0.486C0.131,-0.524 0.172,-0.557 0.221,-0.557C0.289,-0.557 0.326,-0.514 0.326,-0.447C0.326,-0.35 0.215,-0.238 0.038,-0.067L0.038,-0Z" style="fill:rgb(54,54,54);fill-rule:nonzero;"/>
            </g>
        </g>
    </g>
</svg>
