<?xml version="1.0" standalone="no"?>
<!DOCTYPE svg PUBLIC "-//W3C//DTD SVG 20010904//EN"
 "http://www.w3.org/TR/2001/REC-SVG-20010904/DTD/svg10.dtd">
<svg version="1.0" xmlns="http://www.w3.org/2000/svg"
 width="700.000000pt" height="700.000000pt" viewBox="0 0 700.000000 700.000000"
 preserveAspectRatio="xMidYMid meet">
<metadata>
Created by potrace 1.14, written by Peter Selinger 2001-2017
</metadata>
<g transform="translate(0.000000,700.000000) scale(0.100000,-0.100000)"
fill="#000000" stroke="none">
<path d="M1022 6254 c-61 -16 -91 -49 -100 -110 -7 -48 -7 -5275 0 -5304 8
-32 29 -59 62 -79 33 -21 43 -21 604 -21 646 0 625 -2 662 74 19 40 19 67 15
1181 -2 627 -6 1169 -9 1205 -3 36 -8 99 -10 140 -3 41 -8 111 -11 155 -4 44
-4 78 -1 75 3 -3 27 -72 55 -153 27 -81 54 -153 58 -160 4 -6 8 -14 9 -17 1
-7 14 -40 24 -65 5 -11 38 -94 73 -185 160 -406 220 -558 238 -597 10 -24 19
-47 19 -53 0 -6 9 -29 19 -53 11 -23 56 -136 101 -252 75 -193 96 -244 120
-300 11 -26 54 -140 71 -187 7 -21 17 -38 21 -38 4 0 7 -3 6 -7 -3 -10 62
-185 73 -198 5 -5 9 -16 9 -25 0 -20 40 -57 76 -70 36 -14 531 -15 565 -1 41
16 74 63 108 151 17 47 36 94 41 105 5 11 52 130 105 265 53 135 100 254 105
265 4 11 22 56 40 100 17 44 35 89 40 100 4 11 25 63 45 115 21 52 42 106 48
120 5 14 11 30 13 35 1 6 44 114 94 240 50 127 107 271 126 320 19 50 42 104
51 120 10 17 16 31 14 33 -2 2 32 95 95 257 4 11 8 22 8 25 8 34 52 140 58
140 5 0 7 -4 4 -8 -5 -8 -12 -70 -21 -187 -12 -143 -16 -203 -21 -320 -6 -136
-8 -2221 -2 -2246 2 -9 12 -28 22 -43 36 -56 36 -56 655 -56 375 0 579 4 597
11 34 12 85 67 83 89 -1 8 0 17 1 20 7 16 5 177 -2 187 -5 6 -5 13 -1 16 5 3
7 117 6 254 -2 136 -3 253 -3 258 0 6 1 104 3 218 1 115 -1 211 -6 214 -4 2
-4 10 0 16 10 16 10 667 0 667 -5 0 -5 5 -1 12 10 16 11 258 2 265 -5 2 -5 10
-1 16 10 16 10 297 1 304 -5 2 -5 10 -1 16 10 16 10 667 0 667 -5 0 -5 5 -1
12 10 16 11 258 2 265 -5 2 -5 10 -1 16 10 16 10 297 1 304 -5 2 -5 10 -1 16
10 16 10 667 0 667 -5 0 -5 5 -1 12 10 16 11 258 2 265 -5 2 -5 10 -1 16 11
17 11 289 1 304 -5 6 -5 14 -1 16 5 3 8 68 7 144 -1 158 -12 198 -65 231 -29
18 -107 29 -144 22 -5 -1 -14 -2 -19 -1 -6 1 -82 2 -170 1 -89 -1 -165 -1
-171 -1 -61 2 -142 2 -150 0 -5 -1 -14 -1 -20 0 -5 2 -75 2 -155 1 -80 -1
-149 -1 -155 -1 -71 2 -142 2 -150 0 -5 -1 -14 0 -20 1 -39 8 -191 -3 -217
-16 -38 -19 -68 -46 -68 -59 0 -5 -21 -66 -46 -135 -25 -69 -57 -156 -71 -195
-13 -38 -28 -79 -33 -90 -4 -11 -18 -49 -30 -85 -26 -77 -32 -93 -54 -143 -9
-21 -16 -42 -16 -47 0 -5 -5 -21 -12 -37 -6 -15 -12 -32 -14 -38 -1 -5 -9 -27
-18 -47 -9 -21 -13 -38 -10 -38 4 0 2 -6 -4 -12 -5 -7 -22 -49 -37 -93 -15
-44 -30 -84 -33 -90 -4 -5 -7 -14 -8 -20 -3 -16 -80 -230 -105 -290 -4 -11
-22 -60 -39 -110 -17 -49 -34 -99 -39 -110 -5 -11 -19 -47 -30 -80 -11 -33
-34 -98 -51 -145 -18 -47 -51 -139 -75 -205 -23 -66 -48 -133 -55 -150 -6 -16
-14 -37 -16 -45 -7 -26 -49 -144 -55 -155 -4 -5 -30 -82 -59 -170 -29 -88 -57
-166 -63 -172 -5 -7 -7 -13 -3 -13 3 0 -4 -24 -15 -52 -12 -29 -22 -61 -24
-71 -2 -9 -7 -22 -10 -27 -3 -5 -8 -18 -10 -27 -1 -10 -9 -33 -16 -51 l-14
-34 -35 104 c-19 57 -34 106 -32 111 1 4 -2 7 -6 7 -5 0 -14 24 -22 53 -7 28
-17 59 -21 67 -4 8 -22 58 -39 110 -16 52 -34 104 -40 115 -5 11 -16 40 -24
65 -8 25 -27 77 -41 115 -15 39 -37 99 -50 135 -12 36 -34 94 -48 130 -21 53
-98 261 -137 370 -5 14 -15 39 -21 55 -7 17 -13 32 -14 35 -1 3 -4 12 -8 20
-3 8 -24 67 -47 130 -23 63 -46 124 -50 135 -15 33 -210 559 -214 575 -3 8
-13 36 -25 63 -11 26 -21 51 -22 55 -3 14 -11 37 -25 75 -31 83 -43 115 -64
172 -12 33 -26 69 -30 80 -5 11 -19 49 -31 85 -12 36 -26 70 -29 75 -4 6 -11
21 -15 33 -9 31 -39 60 -73 73 -23 9 -148 15 -177 9 -5 -1 -13 -2 -17 -1 -5 1
-33 2 -63 2 -30 0 -58 -1 -62 -2 -5 -1 -12 -1 -17 0 -6 1 -82 2 -170 1 -89 -1
-165 -1 -171 -1 -61 2 -142 2 -150 0 -5 -1 -14 -1 -20 0 -5 2 -75 2 -155 1
-168 -1 -149 -2 -225 2 -32 2 -79 -2 -103 -8z"/>
</g>
</svg>
